<svg width="54" height="54" viewBox="0 0 54 54" fill="none" xmlns="http://www.w3.org/2000/svg">
<g clip-path="url(#clip0_12_1311)">
<path d="M6.50931 54.0004V33.9093H0C0.1087 33.6745 0.170815 33.5254 0.245634 33.382C2.47328 29.0971 4.70375 24.8151 6.92293 20.526C7.07257 20.2377 7.23915 20.1295 7.56808 20.1309C20.5288 20.1393 33.491 20.1393 46.4517 20.1337C46.7425 20.1337 46.926 20.1913 47.0757 20.4796C49.3188 24.8151 51.5747 29.1449 53.8278 33.4762C53.8814 33.5802 53.9224 33.6927 54.0014 33.877H47.5105V54.0032H6.50931V54.0004ZM9.70396 50.7998H25.3935V28.2871C25.2552 28.5402 25.1705 28.6879 25.0914 28.837C24.2952 30.3613 23.4849 31.8787 22.7155 33.4171C22.5278 33.7926 22.309 33.9009 21.9052 33.8995C18.0499 33.884 14.196 33.891 10.3406 33.891H9.70255V50.7998H9.70396ZM44.2989 50.8138V33.8924H43.6368C39.7998 33.8924 35.9628 33.8854 32.1244 33.9023C31.6911 33.9037 31.4737 33.7645 31.2831 33.3834C30.5052 31.8309 29.6907 30.2952 28.8874 28.754C28.8211 28.626 28.735 28.5079 28.622 28.3293V50.8152H44.2989V50.8138ZM24.3785 23.3315C24.2345 23.316 24.1667 23.3034 24.099 23.3034C19.2046 23.3034 14.3103 23.3076 9.41598 23.2921C9.07011 23.2921 8.96565 23.4693 8.84001 23.7098C7.71771 25.8768 6.58977 28.0396 5.46466 30.2052C5.38701 30.3557 5.32208 30.5118 5.22185 30.7284H5.86416C8.62826 30.7284 11.3923 30.7284 14.1564 30.7284C16.1286 30.7284 18.1007 30.7354 20.0714 30.7185C20.2648 30.7171 20.5613 30.6285 20.6361 30.4879C21.8883 28.1338 23.1122 25.7657 24.3771 23.3329L24.3785 23.3315ZM48.8219 30.727C47.5345 28.252 46.3105 25.8838 45.0584 23.5298C44.9849 23.392 44.6871 23.3104 44.4923 23.3104C39.7038 23.2992 34.9154 23.3006 30.1269 23.302C29.9815 23.302 29.8375 23.3245 29.6427 23.3413C30.8567 25.6729 32.0496 27.9384 33.2114 30.2207C33.4063 30.6046 33.6222 30.7382 34.0514 30.7368C38.7693 30.7213 43.4871 30.727 48.2064 30.727H48.8233H48.8219Z" fill="#CECECE"/>
<path d="M28.5938 0V11.1319H25.4231V0H28.5938Z" fill="#CECECE"/>
<path d="M10.6611 7.44918C11.3246 6.78543 12.0516 6.0598 12.749 5.3623C15.3268 7.93434 17.9356 10.5373 20.4978 13.0939C19.8131 13.7787 19.0889 14.5029 18.4099 15.1821C15.8618 12.6396 13.2459 10.0282 10.6625 7.44918H10.6611Z" fill="#CECECE"/>
<path d="M41.2849 5.35938C41.9583 6.04281 42.6698 6.76703 43.3234 7.43219C40.764 9.98734 38.1481 12.5973 35.5746 15.168C34.9408 14.5352 34.2123 13.8081 33.5164 13.1148C36.0659 10.5695 38.6831 7.95672 41.2849 5.36078V5.35938Z" fill="#CECECE"/>
</g>
<defs>
<clipPath id="clip0_12_1311">
<rect width="54" height="54" fill="white"/>
</clipPath>
</defs>
</svg>
