<svg width="42" height="42" viewBox="0 0 42 42" fill="none" xmlns="http://www.w3.org/2000/svg">
<g clip-path="url(#clip0_12_1301)">
<path d="M19.4025 30.7002H16.4489C12.138 30.7002 7.82711 30.7002 3.51755 30.7002C1.33039 30.7002 0.00540737 29.3675 0.0040581 27.1707C0.0040581 24.916 0.0081059 22.6599 1.02975e-05 20.4051C-0.00133897 19.9353 0.12954 19.5692 0.60853 19.4225C1.11585 19.2677 1.60294 19.6567 1.61508 20.2449C1.63262 21.1199 1.62048 21.9949 1.62048 22.8699C1.62048 24.3842 1.61373 25.8986 1.62318 27.413C1.62993 28.3862 2.30456 29.0781 3.27198 29.0795C8.57595 29.0862 13.8799 29.0822 19.1839 29.0808C19.2325 29.0808 19.281 29.0674 19.4011 29.0512C19.4011 28.8466 19.4011 28.6353 19.4011 28.4239C19.4011 27.347 19.3971 26.2701 19.4011 25.1933C19.4079 23.4581 20.749 22.3355 22.4545 22.6854C23.0522 22.8079 23.6203 23.0718 24.2288 23.2818C24.2329 23.2104 24.2477 23.0866 24.2477 22.9614C24.249 21.6153 24.245 20.2692 24.2517 18.9231C24.2517 18.6821 24.218 18.5489 23.936 18.46C22.526 18.0118 21.645 16.6885 21.8487 15.3922C22.074 13.9667 23.2843 12.941 24.8022 12.9329C27.1432 12.9194 29.4829 12.9194 31.8238 12.9329C33.4322 12.941 34.7342 14.2036 34.7544 15.7409C34.7733 17.2566 33.4726 18.5367 31.8562 18.5785C31.2342 18.5946 30.6108 18.5812 29.9484 18.5812V22.8524C31.3894 22.3287 32.5808 22.6801 33.4983 23.9293C34.7639 23.1687 35.9647 23.2508 37.1453 24.216V8.11649H1.62048C1.62048 8.29956 1.62048 8.4786 1.62048 8.65763C1.62048 11.3 1.62048 13.9425 1.62048 16.5835C1.62048 16.7343 1.62993 16.8878 1.61104 17.0372C1.55706 17.4747 1.20626 17.795 0.789332 17.7668C0.345423 17.7371 0.0823156 17.4814 0.013503 17.0439C-0.00943458 16.8958 0.0040581 16.741 0.0040581 16.5903C0.0040581 12.2316 0.0040581 7.87285 0.0040581 3.51414C0.00540737 1.32806 1.33713 0.00348352 3.53374 0.00348352C8.43428 0.00348352 13.3335 0.00348352 18.234 0.00348352C18.3851 0.00348352 18.5403 -0.0113237 18.6874 0.0155985C19.1232 0.0936729 19.3876 0.360203 19.3903 0.805766C19.393 1.25267 19.1299 1.5219 18.6968 1.60401C18.5336 1.63497 18.3608 1.61747 18.1935 1.61747C13.3105 1.61747 8.42754 1.61747 3.54454 1.61747C2.22765 1.61747 1.62183 2.21649 1.62183 3.51952C1.62183 4.47661 1.62183 5.43504 1.62183 6.42847H37.1629C37.1629 5.27216 37.2169 4.11451 37.144 2.96358C37.0927 2.15188 36.3466 1.62016 35.4561 1.61882C32.1719 1.61478 28.8892 1.61747 25.6051 1.61747C25.4701 1.61747 25.3352 1.62016 25.2003 1.61747C24.6093 1.60401 24.2477 1.29171 24.2531 0.800381C24.2585 0.309051 24.616 0.00482963 25.2178 0.00348352C28.6692 0.000791295 32.122 -0.00863148 35.5734 0.00617574C37.4314 0.0142524 38.7942 1.44651 38.7955 3.36472C38.7995 10.3658 38.7969 17.367 38.7969 24.3667C38.7969 24.5673 38.7969 24.7679 38.7969 24.9833C39.1773 25.0344 39.5457 25.0465 39.8925 25.1381C41.0528 25.4436 41.9879 26.4411 41.9946 27.6297C42.0068 29.8454 41.911 32.0638 41.8152 34.2795C41.7936 34.7722 41.6033 35.2635 41.4495 35.7414C41.2957 36.2152 40.8842 36.4319 40.4726 36.3148C40.0247 36.1869 39.7764 35.7764 39.9343 35.2756C40.702 32.8378 40.3391 30.3327 40.3984 27.8545C40.4146 27.1868 39.8263 26.6672 39.1976 26.6605C38.5823 26.6538 38.0885 27.1195 37.994 27.7912C37.9117 28.3782 37.6176 28.6878 37.1588 28.6743C36.6731 28.6595 36.3803 28.2987 36.3736 27.6957C36.3695 27.2582 36.379 26.8207 36.3709 26.3832C36.356 25.6334 35.8635 25.0748 35.2011 25.0438C34.5399 25.0129 34.0528 25.4746 33.9489 26.2284C33.8747 26.7642 33.5644 27.0738 33.1137 27.0576C32.6442 27.0415 32.346 26.6888 32.3325 26.1261C32.3285 25.9417 32.3352 25.7559 32.3298 25.5702C32.3096 24.8217 31.8184 24.2631 31.1559 24.2348C30.4962 24.2052 30.0118 24.6683 29.9079 25.4234C29.835 25.9538 29.5179 26.2661 29.0686 26.25C28.5991 26.2325 28.3036 25.8784 28.2901 25.3158C28.2874 25.1986 28.2901 25.0802 28.2901 24.9617C28.2901 22.7904 28.2928 20.6205 28.2861 18.4492C28.2861 18.2016 28.2631 17.9404 28.1808 17.7089C28.0122 17.2324 27.5264 16.9416 27.0312 16.9658C26.5428 16.9901 26.0948 17.332 25.9653 17.822C25.9019 18.0616 25.8709 18.3173 25.8695 18.565C25.8641 22.1833 25.8655 25.8017 25.8655 29.42C25.8655 29.5722 25.8722 29.7229 25.8628 29.8737C25.8304 30.3556 25.5093 30.6854 25.0721 30.6935C24.6147 30.7029 24.2625 30.3637 24.2544 29.8535C24.2396 28.7766 24.2625 27.6997 24.2436 26.6228C24.2234 25.4329 23.3774 24.4677 22.2103 24.2631C21.4264 24.1258 21.0175 24.461 21.0162 25.2579C21.0135 27.5638 20.9838 29.8696 21.0229 32.1742C21.0796 35.5745 22.495 38.299 25.2286 40.333C25.2961 40.3828 25.3662 40.4299 25.431 40.4837C25.8196 40.8027 25.9019 41.282 25.6347 41.6414C25.3662 41.9994 24.8899 42.0573 24.4663 41.7666C22.8674 40.6681 21.618 39.2588 20.7207 37.5411C19.8167 35.8087 19.3863 33.9591 19.3971 32.0059C19.3998 31.5886 19.3971 31.1713 19.3971 30.6975L19.4025 30.7002ZM24.5081 16.9295C24.5648 16.8783 24.5972 16.8595 24.612 16.8326C25.771 14.8188 28.479 14.8982 29.5436 16.7599C29.5975 16.8554 29.7392 16.9564 29.8431 16.9577C30.565 16.9712 31.2909 16.9968 32.01 16.9443C32.713 16.8918 33.196 16.3291 33.1623 15.7139C33.1272 15.084 32.597 14.5549 31.9264 14.5509C29.5395 14.5388 27.1527 14.5374 24.7658 14.5536C24.0615 14.559 23.507 15.053 23.453 15.6466C23.4004 16.2241 23.8159 16.7329 24.5081 16.9308V16.9295Z" fill="#CECECE"/>
<path d="M11.775 10.5055C13.9635 10.5055 16.1534 10.5055 18.3419 10.5055C19.1339 10.5055 19.4011 10.7734 19.4024 11.5649C19.4038 14.0888 19.4038 16.6128 19.4024 19.1381C19.4024 19.9283 19.1326 20.1975 18.3406 20.1975C13.9285 20.1988 9.5177 20.1988 5.1056 20.1975C4.31493 20.1975 4.04642 19.9283 4.04642 19.1367C4.04507 16.6128 4.04507 14.0888 4.04642 11.5635C4.04642 10.772 4.31358 10.5055 5.10695 10.5055C7.32919 10.5041 9.55143 10.5055 11.775 10.5055ZM17.7631 12.1558H5.70197V18.5566H17.7631V12.1558Z" fill="#CECECE"/>
<path d="M11.7266 23.4303C9.77284 23.4303 7.82045 23.4383 5.86671 23.4208C5.61575 23.4181 5.27978 23.3562 5.13676 23.1907C4.96945 22.9955 4.88175 22.6441 4.91683 22.3816C4.9654 22.0182 5.28113 21.827 5.65758 21.8203C6.33086 21.8095 7.00415 21.8149 7.67743 21.8149C10.8927 21.8149 14.1094 21.8149 17.3247 21.8149C17.4596 21.8149 17.5945 21.8109 17.7281 21.8163C18.2449 21.8419 18.5849 22.1609 18.5876 22.6172C18.5903 23.0749 18.2503 23.4181 17.7362 23.4235C16.592 23.437 15.4465 23.4289 14.301 23.4289C13.4428 23.4289 12.5834 23.4289 11.7252 23.4289L11.7266 23.4303Z" fill="#CECECE"/>
<path d="M9.31802 25.0462C10.4635 25.0462 11.6077 25.0435 12.7533 25.0462C13.3793 25.0489 13.7531 25.3665 13.7409 25.8713C13.7288 26.3559 13.3658 26.6575 12.7654 26.6588C10.4595 26.6628 8.15225 26.6628 5.84635 26.6588C5.21759 26.6588 4.84654 26.3398 4.85869 25.8323C4.87083 25.3437 5.22839 25.0475 5.83286 25.0462C6.99458 25.0421 8.1563 25.0448 9.31802 25.0448V25.0462Z" fill="#CECECE"/>
<path d="M40.0314 38.4772C39.8789 38.772 39.8074 38.9793 39.6819 39.1462C38.9007 40.1894 37.9656 41.0765 36.8822 41.8034C36.4261 42.1103 36.0092 42.0551 35.7312 41.6715C35.4479 41.2798 35.5707 40.8625 35.9835 40.4883C36.8241 39.7237 37.6445 38.9362 38.45 38.1339C38.7388 37.8472 39.0477 37.6305 39.4201 37.8283C39.6657 37.9576 39.8249 38.2483 40.0314 38.4772Z" fill="#CECECE"/>
<path d="M22.6312 0.817209C22.6271 1.25739 22.2601 1.61949 21.8216 1.61545C21.3818 1.61141 21.0202 1.24527 21.0242 0.805094C21.0269 0.364916 21.3939 0.00415869 21.8338 0.00685091C22.275 0.0108892 22.6366 0.377031 22.6325 0.815863L22.6312 0.817209Z" fill="#CECECE"/>
<path d="M4.84517 4.84594C4.40666 4.84056 4.04506 4.47172 4.04911 4.03289C4.0545 3.59271 4.4215 3.2333 4.86136 3.23734C5.29988 3.24272 5.66283 3.61156 5.65743 4.04904C5.65204 4.48653 5.28234 4.84998 4.84517 4.84459V4.84594Z" fill="#CECECE"/>
<path d="M8.88076 4.84567C8.44225 4.83759 8.08335 4.46472 8.09144 4.02724C8.09954 3.5884 8.47059 3.23034 8.9091 3.23842C9.34761 3.24649 9.70787 3.61802 9.69977 4.0555C9.69167 4.49299 9.31793 4.85375 8.88076 4.84567Z" fill="#CECECE"/>
<path d="M13.7396 4.02919C13.7477 4.46533 13.3861 4.83955 12.9489 4.84762C12.5117 4.8557 12.1393 4.49629 12.1312 4.05746C12.1231 3.61862 12.4807 3.24844 12.9206 3.24037C13.3591 3.23229 13.7301 3.5917 13.7396 4.02919Z" fill="#CECECE"/>
</g>
<defs>
<clipPath id="clip0_12_1301">
<rect width="42" height="42" fill="white"/>
</clipPath>
</defs>
</svg>
