<svg width="64" height="66" viewBox="0 0 64 66" fill="none" xmlns="http://www.w3.org/2000/svg">
<g clip-path="url(#clip0_12_1317)">
<path d="M34.4425 0C35.7564 0.213819 37.09 0.341132 38.3793 0.652884C46.428 2.60501 52.3667 7.25354 56.1117 14.6279C57.9416 18.2334 58.8066 22.0773 58.7903 26.1186C58.787 27.0424 58.8198 27.9679 58.7788 28.8885C58.7575 29.3732 58.9377 29.6736 59.2883 29.9837C66.6424 36.5174 65.1713 47.8188 56.4033 52.3352C56.1379 52.4723 55.9069 52.7938 55.7923 53.0827C54.2965 56.8449 51.9669 59.9282 48.4873 62.086C46.7704 63.1502 44.9126 63.8732 42.9385 64.2943C42.5175 64.3841 42.2161 64.5261 41.9785 64.9276C41.5395 65.6719 40.8006 65.9755 39.9569 65.9853C38.5775 66.0016 37.1964 66.0082 35.817 65.9837C34.4999 65.9592 33.5104 65.0011 33.435 63.7345C33.3629 62.525 34.2525 61.389 35.5369 61.3107C37.1244 61.2127 38.7233 61.2682 40.3173 61.3025C40.6417 61.309 41.0283 61.4363 41.2708 61.642C41.7082 62.0109 42.1227 61.9995 42.6338 61.8738C47.3667 60.7084 50.7448 57.8977 52.9581 53.5234C52.0833 53.6017 51.2838 53.6736 50.4384 53.7503V26.5724C51.8129 26.7731 53.153 26.969 54.5734 27.1763C54.7094 19.8395 52.1799 13.593 46.3166 9.05876C38.8019 3.2481 30.514 2.47606 22.1606 6.97606C14.3838 11.1659 10.8025 18.0832 10.719 26.8939C11.6954 26.8025 12.5833 26.7193 13.527 26.6295V53.7095C11.6413 53.7111 9.85236 53.3716 8.17479 52.6012C3.47628 50.4434 0.647018 46.7938 0.0932883 41.6817C-0.46208 36.5582 1.44976 32.3373 5.64697 29.2508C6.2908 28.7775 6.55947 28.3319 6.52999 27.5305C6.39073 23.7144 6.933 20.0027 8.38121 16.4396C10.0932 12.2318 12.6947 8.67682 16.2301 5.82535C19.8523 2.9037 23.979 1.06094 28.5891 0.321545C29.3738 0.195865 30.1634 0.106094 30.9498 0C32.1146 0 33.2777 0 34.4425 0Z" fill="#CECECE"/>
</g>
<defs>
<clipPath id="clip0_12_1317">
<rect width="64" height="66" fill="white"/>
</clipPath>
</defs>
</svg>
