<svg width="49" height="49" viewBox="0 0 49 49" fill="none" xmlns="http://www.w3.org/2000/svg">
<g clip-path="url(#clip0_12_1221)">
<path d="M-0.000186305 47.9352V1.05196C0.228672 0.580305 0.578992 0.227521 1.05205 0C9.15543 0 17.2575 0 25.3609 0C25.3545 0.0306769 25.3417 0.0626321 25.3417 0.093309C25.3405 4.33439 25.3341 8.5742 25.352 12.814C25.352 13.0939 25.4875 13.4071 25.6473 13.6461C25.9836 14.1472 26.5218 14.2264 27.0869 14.2251C31.0415 14.22 34.996 14.2226 38.9505 14.2226H39.4939V24.4981C33.4285 24.2974 28.671 26.6071 26.0091 32.0638C22.8729 38.4932 24.5222 44.1645 29.6658 48.9847H29.1467C20.0729 48.9847 11.0004 48.9757 1.92657 48.9974C1.03671 49 0.382097 48.7571 -0.00146484 47.9314L-0.000186305 47.9352ZM14.5982 19.3265C16.989 19.3265 19.3799 19.3265 21.7708 19.3265C22.7949 19.3265 23.4431 18.7756 23.4495 17.9038C23.4572 17.0142 22.8026 16.4569 21.7478 16.4569C20.5677 16.4569 19.3889 16.4569 18.2088 16.4569C14.5905 16.4569 10.9722 16.4607 7.35397 16.4531C6.70703 16.4531 6.19817 16.6716 5.89899 17.2609C5.40036 18.2451 6.11762 19.3214 7.28109 19.3252C9.71927 19.3329 12.1587 19.3277 14.5969 19.3277L14.5982 19.3265ZM14.5918 26.0243C17.0466 26.0243 19.5014 26.0294 21.9562 26.0217C22.8166 26.0191 23.4405 25.4133 23.4508 24.608C23.461 23.781 22.8294 23.1662 21.9472 23.156C21.2466 23.1483 20.5447 23.1547 19.8427 23.1547C15.6824 23.1547 11.522 23.1585 7.36164 23.1509C6.69296 23.1509 6.17388 23.3809 5.88109 23.9957C5.41698 24.971 6.1368 26.0191 7.27598 26.023C9.71415 26.0306 12.1536 26.0255 14.5918 26.0255V26.0243ZM11.2497 29.8512C9.94301 29.8512 8.63634 29.8486 7.32968 29.8512C6.40018 29.8538 5.75068 30.4392 5.74301 31.2726C5.73534 32.1072 6.38612 32.7182 7.30411 32.7195C9.91744 32.7233 12.5308 32.7233 15.1441 32.7195C16.0595 32.7182 16.718 32.1021 16.7103 31.2751C16.7026 30.4456 16.048 29.855 15.1224 29.8525C13.8323 29.8486 12.541 29.8525 11.2497 29.8525V29.8512Z" fill="#CBCED2"/>
<path d="M38.5147 11.3337C35.0882 7.90811 31.6528 4.47485 28.248 1.07227V11.3337H38.5147Z" fill="#CBCED2"/>
<path d="M1.05224 0C0.579178 0.227521 0.228858 0.580305 0 1.05196V0H1.05224Z" fill="#CBCED2"/>
<path d="M38.5147 11.3337H28.248V1.07227C31.6528 4.47485 35.0882 7.90811 38.5147 11.3337Z" fill="#CBCED2"/>
<path d="M38.245 27.3654C32.2704 27.3347 27.3813 32.1855 27.3723 38.1522C27.3634 44.1073 32.2014 48.9709 38.1491 48.9875C44.1046 49.0041 48.9758 44.1725 48.9988 38.2237C49.0218 32.2686 44.1966 27.3948 38.245 27.3654ZM43.7287 36.2898C43.0945 36.9391 42.4476 37.577 41.8058 38.2186C40.5668 39.4572 39.3292 40.6971 38.0878 41.9344C37.2759 42.7447 36.5024 42.7409 35.6854 41.928C34.7035 40.9501 33.7215 39.9723 32.7447 38.9894C32.062 38.3017 32.016 37.4249 32.622 36.8279C33.2191 36.2387 34.1026 36.2936 34.7853 36.9698C35.4527 37.6306 36.1163 38.2966 36.7824 38.96C36.8041 38.9817 36.8335 38.9958 36.9192 39.0546C38.479 37.49 40.0337 35.9383 41.5794 34.3763C41.9221 34.0312 42.3044 33.7986 42.8005 33.828C43.3924 33.8625 43.8335 34.1475 44.056 34.7061C44.2899 35.2966 44.1698 35.8373 43.7287 36.2898Z" fill="#CBCED2"/>
</g>
<defs>
<clipPath id="clip0_12_1221">
<rect width="49" height="49" fill="white"/>
</clipPath>
</defs>
</svg>
