<svg width="57" height="50" viewBox="0 0 57 50" fill="none" xmlns="http://www.w3.org/2000/svg">
<g clip-path="url(#clip0_12_1298)">
<path d="M48.4261 27.4766C49.7963 30.3841 47.5301 33.6775 44.4796 33.4757C44.3139 34.7992 43.8167 35.9762 42.6992 36.7984C41.5702 37.6286 40.3329 37.7165 39.0185 37.22C38.4196 38.5696 37.4088 39.4243 35.9992 39.7906C34.8489 40.0901 33.8003 39.9127 32.9601 39.014C32.4728 38.4931 32.0133 37.9444 31.5358 37.4007C31.2831 37.5896 31.1764 37.6449 31.1042 37.7279C29.3222 39.7531 27.6484 41.8597 26.4456 44.287C24.5355 48.1437 21.334 49.9068 17.1217 49.998C15.9419 50.024 14.7587 49.827 13.574 49.7766C12.6797 49.7375 11.7706 49.6789 10.8861 49.7847C6.89039 50.2617 3.99412 48.694 2.14805 45.1954C0.97313 42.9749 -0.101691 40.699 0.00825213 38.0975C0.121478 35.3788 1.28819 33.194 3.59537 31.7077C4.42076 31.177 4.94423 30.5079 5.30195 29.6385C6.15197 27.571 6.91665 25.4611 7.90778 23.462C8.92517 21.4107 10.1362 19.4474 11.3374 17.4922C11.8575 16.6456 12.573 15.9245 13.5412 15.5191C13.6675 15.467 13.7725 15.257 13.8037 15.104C14.1385 13.4499 15.1181 12.3673 16.6721 11.7194C25.6399 7.98482 34.5995 4.23071 43.5656 0.487996C46.3076 -0.656471 48.5623 0.225892 49.7274 2.94787C51.7605 7.69341 53.7526 12.4569 55.7628 17.2122C56.0631 17.9236 56.3732 18.6318 56.6571 19.3497C57.5662 21.6435 56.6111 23.9878 54.3401 24.976C52.599 25.733 50.8399 26.4493 49.0907 27.1835C48.8675 27.278 48.6476 27.3789 48.4245 27.4766H48.4261ZM14.086 17.4173C13.9891 17.3506 13.8923 17.2854 13.7971 17.2187C13.5313 17.5736 13.2359 17.9122 13.0046 18.2883C12.0659 19.8104 11.0223 21.2837 10.2478 22.8857C9.03675 25.3895 8.00952 27.9812 6.91172 30.5388C6.43421 31.6507 5.73352 32.5151 4.67675 33.194C2.45819 34.6201 1.5409 36.7283 1.92816 39.3299C2.24979 41.4967 3.20974 43.4307 4.37154 45.2654C5.67445 47.3232 7.56154 48.1779 9.99671 47.9939C11.275 47.8979 12.5648 47.9239 13.8497 47.9549C14.9918 47.9825 16.1355 48.173 17.2743 48.1486C20.4446 48.0802 23.0291 46.8706 24.5109 43.9614C26.1748 40.6957 28.3885 37.8403 30.9221 35.2241C33.0783 32.997 35.3149 30.8481 37.5236 28.6715C37.819 28.3801 38.0093 28.1131 37.8863 27.6605C37.3251 25.5946 34.9621 24.7644 33.29 26.0553C31.6736 27.3024 30.077 28.5754 28.4196 29.7655C27.1463 30.6788 25.8204 31.5286 24.4633 32.3165C23.2671 33.0101 22.0413 32.8424 21.0846 31.8688C20.3527 31.1249 19.6947 30.262 19.1992 29.3487C18.551 28.1571 18.0899 26.8644 17.5566 25.6109C16.3964 22.8808 15.2428 20.1491 14.086 17.4173ZM50.9138 10.4659C40.1754 14.9558 29.5076 19.4165 18.8135 23.8885C19.4912 25.4725 20.0885 26.9882 20.7909 28.455C21.1191 29.1404 21.6015 29.772 22.102 30.3532C22.6287 30.9653 23.016 31.0125 23.7331 30.6251C24.5043 30.2083 25.2756 29.7753 25.9779 29.2576C28.1325 27.6719 30.2575 26.0488 32.3858 24.429C33.4213 23.6411 34.5568 23.322 35.8417 23.6166C37.161 23.9194 38.1685 24.6846 38.9496 25.7558C39.6864 26.7684 40.0359 27.8722 39.5486 29.1925C41.5899 28.3361 43.5279 27.5238 45.4658 26.7098C48.1767 25.5718 50.8908 24.4436 53.5967 23.2927C54.9751 22.7066 55.4969 21.4091 54.9538 20.0204C54.8209 19.6802 54.6748 19.3432 54.5337 19.0062C53.3375 16.1817 52.1396 13.3555 50.9154 10.4659H50.9138ZM48.3342 4.38862C48.216 4.10373 48.1389 3.91651 48.0602 3.73092C47.2824 1.89457 46.091 1.41431 44.2318 2.19249C41.4455 3.35812 38.6592 4.53026 35.8728 5.69426C29.6947 8.27623 23.5165 10.8566 17.3367 13.432C16.6475 13.7185 16.101 14.1337 15.7991 14.8337C15.3298 15.9196 15.809 16.8361 16.2651 17.7901C26.969 13.3164 37.6254 8.86393 48.3342 4.38862ZM49.0562 6.07032C38.3343 10.5521 27.6697 15.0095 16.9609 19.4848C17.3531 20.4095 17.7239 21.2805 18.1112 22.1938C28.8135 17.7201 39.478 13.2627 50.1983 8.78253C49.8143 7.86761 49.455 7.01292 49.0579 6.07032H49.0562ZM36.5292 32.4435C37.3759 33.3405 38.1751 34.2099 39.0038 35.0499C39.2105 35.2599 39.5042 35.4048 39.7816 35.5236C40.6857 35.9095 41.5751 35.5953 42.1609 34.7145C42.8108 33.7361 42.7632 32.7398 42.0247 32.0544C41.6358 31.693 41.2486 31.3284 40.8351 30.9995C40.7038 30.8953 40.4511 30.8172 40.3116 30.8725C39.0251 31.387 37.7501 31.9323 36.5292 32.4451V32.4435ZM32.6385 35.9893C33.2736 36.6616 33.8036 37.2542 34.3746 37.8061C34.5322 37.9575 34.8079 38.06 35.031 38.06C35.9401 38.0633 36.6671 37.6498 37.097 36.87C37.243 36.6046 37.2578 36.0625 37.0839 35.8655C36.4176 35.1134 35.6513 34.4524 35.0113 33.8419C34.204 34.5729 33.4065 35.2957 32.6402 35.9876L32.6385 35.9893ZM46.6375 28.2075C45.2574 28.7855 43.8971 29.3536 42.458 29.9576C43.0028 30.4525 43.4327 30.9686 43.9791 31.2925C44.3582 31.5172 44.9358 31.6279 45.3592 31.5253C46.7622 31.1835 47.4793 29.3487 46.6375 28.2075Z" fill="#CECECE"/>
<path d="M48.9052 14.2839C49.0972 14.4548 49.4582 14.6355 49.5878 14.9204C50.236 16.3432 50.8366 17.7889 51.4257 19.2378C51.6554 19.8011 51.4667 20.2504 50.9006 20.4897C48.4588 21.5218 46.0089 22.5409 43.5557 23.547C43.0158 23.7684 42.5678 23.5959 42.3365 23.0684C41.6998 21.6179 41.0828 20.1576 40.4838 18.6908C40.2672 18.1601 40.4543 17.7091 40.9876 17.4828C43.4277 16.4458 45.8776 15.4283 48.3259 14.4092C48.4555 14.3555 48.6032 14.3473 48.9035 14.2822L48.9052 14.2839ZM49.3991 19.1368C48.9938 18.191 48.6213 17.32 48.2422 16.4328C46.3092 17.2419 44.4369 18.0249 42.5301 18.8243C42.9223 19.7506 43.2849 20.6069 43.6755 21.5283C45.5888 20.729 47.4628 19.946 49.3991 19.1368Z" fill="#CECECE"/>
</g>
<defs>
<clipPath id="clip0_12_1298">
<rect width="57" height="50" fill="white"/>
</clipPath>
</defs>
</svg>
