<svg width="43" height="46" viewBox="0 0 43 46" fill="none" xmlns="http://www.w3.org/2000/svg">
<g clip-path="url(#clip0_12_1229)">
<path d="M37.036 3.69567C36.8361 3.69567 36.6614 3.69567 36.4855 3.69567C31.1606 3.69567 25.8369 3.69567 20.512 3.69567C17.7149 3.69567 14.9178 3.69567 12.1219 3.69567C11.338 3.69567 11.1214 3.47241 11.1154 2.67297C11.1154 2.50492 11.1154 2.33567 11.1154 2.0836C9.80719 2.90104 8.59715 3.65846 7.33325 4.4483C8.60673 5.24413 9.82394 6.00396 11.0914 6.79379C11.1034 6.59333 11.1142 6.4901 11.1154 6.38687C11.1309 5.34136 11.2769 5.19612 12.317 5.19612C19.8705 5.19612 27.4227 5.19612 34.9762 5.19612H35.5663V6.67015H12.6091C12.6091 7.1431 12.6019 7.55962 12.6115 7.97614C12.6186 8.32905 12.548 8.69275 12.1949 8.78878C11.9304 8.8596 11.5594 8.81999 11.3272 8.67955C9.44932 7.53921 7.59298 6.36407 5.73184 5.19612C5.01372 4.74479 5.01013 4.15301 5.72466 3.70408C7.58579 2.53613 9.45052 1.37419 11.3117 0.205044C11.6073 0.0189857 11.9017 -0.0962448 12.2309 0.104214C12.5516 0.298672 12.621 0.605961 12.6115 0.956467C12.6007 1.36939 12.6091 1.78231 12.6091 2.23725H37.0372V3.69567H37.036ZM8.88799 34.1319C6.24051 34.1319 3.59183 34.1331 0.944355 34.1319C0.27291 34.1319 0.0131887 33.8798 0.00600744 33.2172C-0.00237066 32.3337 -0.00356753 31.4503 0.00600744 30.5668C0.0131887 29.9318 0.2765 29.6714 0.920417 29.6714C6.2465 29.6678 11.5714 29.6678 16.8975 29.6714C17.5234 29.6714 17.7927 29.9534 17.7987 30.5872C17.8059 31.4263 17.8023 32.2641 17.7999 33.1032C17.7975 33.8858 17.5569 34.1307 16.7861 34.1319C14.153 34.1331 11.5199 34.1319 8.88799 34.1319ZM34.1145 34.1319C31.467 34.1319 28.8183 34.1319 26.1708 34.1319C25.4563 34.1319 25.2025 33.875 25.199 33.1524C25.1954 32.3133 25.1942 31.4755 25.199 30.6364C25.2025 29.927 25.4635 29.6702 26.1864 29.6702C31.467 29.6678 36.7476 29.6678 42.0294 29.6702C42.7463 29.6702 42.9893 29.921 42.994 30.652C42.9988 31.4755 42.9976 32.2989 42.994 33.1224C42.9905 33.9026 42.7571 34.1307 41.9671 34.1307C39.3496 34.1307 36.7308 34.1307 34.1133 34.1307L34.1145 34.1319ZM8.91073 11.8629C11.5283 11.8629 14.147 11.8629 16.7646 11.8629C17.5641 11.8629 17.7987 12.103 17.8011 12.9156C17.8023 13.7246 17.8047 14.5325 17.8011 15.3415C17.7975 16.0629 17.5438 16.3246 16.8304 16.3246C11.5343 16.327 6.23931 16.327 0.943158 16.3246C0.27291 16.3246 0.0131887 16.0689 0.00600744 15.4063C-0.00237066 14.5529 2.30864e-05 13.6994 0.00600744 12.846C0.0107949 12.097 0.251366 11.8641 1.01258 11.8629C3.64569 11.8617 6.27881 11.8629 8.91073 11.8629ZM34.0666 11.8629C36.7296 11.8629 39.3927 11.8617 42.0545 11.8629C42.7224 11.8629 42.9857 12.1174 42.9928 12.7788C43.0012 13.6622 43.0024 14.5457 42.9928 15.4291C42.9857 16.0629 42.7212 16.3234 42.0772 16.3234C36.7512 16.327 31.4263 16.327 26.1002 16.3234C25.4718 16.3234 25.2061 16.0449 25.2002 15.4075C25.193 14.5685 25.1966 13.7306 25.199 12.8916C25.2013 12.109 25.4419 11.8629 26.2127 11.8629C28.8303 11.8617 31.449 11.8629 34.0666 11.8629ZM8.93347 20.7623C11.551 20.7623 14.1698 20.7611 16.7873 20.7623C17.539 20.7623 17.7975 21.0156 17.7999 21.7514C17.8035 22.5905 17.8047 23.4283 17.7999 24.2674C17.7963 24.9588 17.533 25.23 16.8532 25.23C11.5427 25.2324 6.23094 25.2324 0.920417 25.23C0.280091 25.23 0.0143855 24.966 0.00720431 24.3334C-0.00237066 23.4943 0.00241683 22.6565 0.00481057 21.8174C0.00720431 20.982 0.229822 20.7623 1.0796 20.7623C3.69716 20.7623 6.31591 20.7623 8.93347 20.7623ZM34.0809 20.7623C36.7141 20.7623 39.3472 20.7623 41.9803 20.7623C42.7547 20.7623 42.9928 21.0036 42.9964 21.7862C43 22.6253 43.0024 23.4631 42.9952 24.3022C42.9893 24.9672 42.7295 25.23 42.0665 25.23C36.7559 25.2324 31.4442 25.2324 26.1337 25.23C25.4742 25.23 25.2073 24.9576 25.2025 24.2986C25.1966 23.4751 25.2002 22.6517 25.2013 21.8282C25.2025 20.9952 25.4347 20.7635 26.2725 20.7635C28.8757 20.7635 31.4789 20.7635 34.0821 20.7635L34.0809 20.7623ZM2.25014 28.1721V26.7257H15.5438V28.1721H2.25014ZM40.7547 28.1625H27.4515V26.7389H40.7547V28.1625ZM2.24296 17.8311H15.5342V19.2607H2.24296V17.8311ZM27.4515 17.8227H40.7499V19.2703H27.4515V17.8227ZM1.52005 40.7734V39.3558H2.94672V40.7734H1.52005ZM5.91975 40.7662H4.47632V39.3642H5.91975V40.7662ZM37.0923 6.64735V5.22973H38.5249V6.64735H37.0923ZM40.0569 5.22853H41.4908V6.63295H40.0569V5.22853Z" fill="#CBCED2"/>
<path d="M31.3747 45.9996C33.3232 44.7752 35.2705 43.552 37.2191 42.3277C38.0174 41.8259 38.015 41.2678 37.2131 40.7648C35.389 39.6221 33.5614 38.4817 31.7386 37.3354C31.4334 37.1433 31.1318 36.9957 30.7799 37.1986C30.4328 37.3978 30.3825 37.7303 30.3909 38.0916C30.3993 38.4793 30.3933 38.8682 30.3933 39.3148H7.4385V40.7996C7.63838 40.7996 7.82629 40.7996 8.01539 40.7996C15.57 40.7996 23.1259 40.7996 30.6805 40.7996C31.7242 40.7996 31.8702 40.6544 31.8846 39.6101C31.8858 39.5068 31.8966 39.4024 31.9085 39.1983C33.176 39.9906 34.3932 40.7504 35.6679 41.5474C34.4064 42.3373 33.1964 43.0947 31.8846 43.9169C31.8846 43.6168 31.8894 43.4044 31.8846 43.1931C31.8666 42.5521 31.6165 42.3025 30.9714 42.3025C28.653 42.2989 26.3335 42.3013 24.0152 42.3013C18.2103 42.3013 12.4055 42.3013 6.60069 42.3013C6.408 42.3013 6.2141 42.3013 5.98071 42.3013V43.7501H30.3921C30.3921 44.2098 30.4101 44.6107 30.3873 45.0093C30.3622 45.4606 30.5226 45.7919 30.9259 46.002C31.0755 46.002 31.2251 46.002 31.3747 46.002V45.9996Z" fill="#CBCED2"/>
<path d="M37.0361 3.69619V2.23776H12.6092C12.6092 1.78403 12.6008 1.3699 12.6115 0.956983C12.6211 0.606479 12.5517 0.299188 12.2309 0.10473C11.9018 -0.0957298 11.6074 0.0195045 11.3117 0.20556C9.45061 1.3747 7.58588 2.53545 5.72475 3.7046C5.00902 4.15353 5.01261 4.7453 5.73193 5.19664C7.59306 6.36458 9.45061 7.53973 11.3273 8.68007C11.5595 8.82051 11.9305 8.86132 12.195 8.7893C12.5481 8.69447 12.6187 8.33076 12.6115 7.97666C12.6032 7.56014 12.6092 7.14361 12.6092 6.67067H35.5663V5.19664H34.9763C27.4228 5.19664 19.8706 5.19664 12.3171 5.19664C11.277 5.19664 11.131 5.34188 11.1155 6.38739C11.1143 6.49062 11.1035 6.59385 11.0915 6.79431C9.82523 6.00328 8.60801 5.24345 7.33334 4.44881C8.59724 3.65898 9.80727 2.90156 11.1155 2.08412C11.1155 2.33619 11.1155 2.50424 11.1155 2.67349C11.1202 3.47293 11.3381 3.69619 12.122 3.69619C14.9191 3.69619 17.7162 3.69619 20.5121 3.69619C25.837 3.69619 31.1607 3.69619 36.4855 3.69619C36.6603 3.69619 36.8362 3.69619 37.0361 3.69619Z" fill="#CBCED2"/>
<path d="M8.88794 34.1317C11.5211 34.1317 14.1542 34.1317 16.7861 34.1317C17.5569 34.1317 17.7975 33.8857 17.7998 33.103C17.8022 32.264 17.8058 31.4261 17.7987 30.5871C17.7927 29.9533 17.5234 29.6712 16.8974 29.6712C11.5713 29.6676 6.24645 29.6676 0.92037 29.6712C0.27765 29.6712 0.0131418 29.9317 0.00596053 30.5667C-0.00361445 31.4502 -0.00361445 32.3336 0.00596053 33.2171C0.0119449 33.8797 0.272863 34.1305 0.944308 34.1317C3.59179 34.1341 6.24046 34.1317 8.88794 34.1317Z" fill="#CBCED2"/>
<path d="M34.1145 34.1335C36.732 34.1335 39.3508 34.1335 41.9683 34.1335C42.7583 34.1335 42.9917 33.9054 42.9953 33.1252C42.9989 32.3017 43.0001 31.4783 42.9953 30.6548C42.9905 29.9238 42.7475 29.673 42.0306 29.673C36.75 29.6706 31.4694 29.6706 26.1876 29.673C25.4635 29.673 25.2038 29.9298 25.2002 30.6392C25.1954 31.4783 25.1966 32.3161 25.2002 33.1552C25.2038 33.8778 25.4575 34.1347 26.172 34.1347C28.8195 34.1371 31.4682 34.1347 34.1157 34.1347L34.1145 34.1335Z" fill="#CBCED2"/>
<path d="M8.91072 11.8627C6.2776 11.8627 3.64449 11.8627 1.01257 11.8627C0.251356 11.8627 0.00958775 12.0967 0.00599713 12.8457C0.00120965 13.6992 -0.00118409 14.5526 0.00599713 15.4061C0.0119815 16.0675 0.271703 16.3232 0.943148 16.3244C6.2393 16.3268 11.5343 16.3268 16.8304 16.3244C17.5438 16.3244 17.7975 16.0627 17.8011 15.3413C17.8047 14.5322 17.8035 13.7244 17.8011 12.9154C17.7999 12.1027 17.5641 11.8639 16.7646 11.8627C14.147 11.8627 11.5283 11.8627 8.91072 11.8627Z" fill="#CBCED2"/>
<path d="M34.0665 11.8629C31.4489 11.8629 28.8302 11.8629 26.2126 11.8629C25.443 11.8629 25.2012 12.109 25.1988 12.8917C25.1965 13.7307 25.1929 14.5686 25.2 15.4076C25.206 16.0438 25.4717 16.3223 26.1001 16.3235C31.4262 16.3271 36.751 16.3271 42.0771 16.3235C42.7198 16.3235 42.9844 16.0642 42.9927 15.4292C43.0035 14.5457 43.0023 13.6623 42.9927 12.7788C42.9867 12.1174 42.7234 11.8642 42.0544 11.8629C39.3913 11.8605 36.7283 11.8629 34.0665 11.8629Z" fill="#CBCED2"/>
<path d="M8.93346 20.763C6.3159 20.763 3.69715 20.763 1.07959 20.763C0.231008 20.763 0.00719296 20.9826 0.00479922 21.8181C0.00240548 22.6571 -0.00238201 23.495 0.00719296 24.334C0.0143742 24.9678 0.28008 25.2307 0.920406 25.2307C6.23092 25.2343 11.5426 25.2343 16.8532 25.2307C17.5342 25.2307 17.7963 24.9582 17.7999 24.268C17.8047 23.429 17.8047 22.5911 17.7999 21.7521C17.7963 21.0163 17.539 20.7642 16.7873 20.763C14.1698 20.7606 11.551 20.763 8.93346 20.763Z" fill="#CBCED2"/>
<path d="M34.0797 20.7622C31.4765 20.7622 28.8733 20.7622 26.2701 20.7622C25.4323 20.7622 25.2001 20.9939 25.1989 21.8269C25.1977 22.6504 25.1942 23.4738 25.2001 24.2973C25.2049 24.9563 25.473 25.2287 26.1313 25.2287C31.4418 25.2323 36.7535 25.2323 42.0641 25.2287C42.7271 25.2287 42.9868 24.9659 42.9928 24.3009C43.0012 23.4618 42.9976 22.624 42.994 21.7849C42.9904 21.0023 42.7523 20.761 41.9779 20.761C39.3448 20.7598 36.7116 20.761 34.0785 20.761L34.0797 20.7622Z" fill="#CBCED2"/>
<path d="M2.25 28.1719H15.5437V26.7254H2.25V28.1719Z" fill="#CBCED2"/>
<path d="M40.7546 28.1631V26.7395H27.4514V28.1631H40.7546Z" fill="#CBCED2"/>
<path d="M2.24292 17.8311V19.2607H15.5342V17.8311H2.24292Z" fill="#CBCED2"/>
<path d="M27.4514 17.8229V19.2705H40.7499V17.8229H27.4514Z" fill="#CBCED2"/>
<path d="M1.52002 40.7734H2.94669V39.3558H1.52002V40.7734Z" fill="#CBCED2"/>
<path d="M5.91852 40.7666V39.3646H4.4751V40.7666H5.91852Z" fill="#CBCED2"/>
<path d="M37.0923 6.64746H38.5249V5.22984H37.0923V6.64746Z" fill="#CBCED2"/>
<path d="M40.0569 5.2284V6.63281H41.4907V5.2284H40.0569Z" fill="#CBCED2"/>
</g>
<defs>
<clipPath id="clip0_12_1229">
<rect width="43" height="46" fill="white" transform="matrix(1 0 0 -1 0 46)"/>
</clipPath>
</defs>
</svg>
