<svg width="59" height="38" viewBox="0 0 59 38" fill="none" xmlns="http://www.w3.org/2000/svg">
<g clip-path="url(#clip0_12_1213)">
<path d="M29.5762 0.0375209C37.3836 0.0375209 45.1909 0.119401 52.9982 0.00278371C56.7211 -0.0518033 59.0401 2.5907 59.0002 6.02224C58.898 14.7165 58.9678 23.4132 58.9653 32.1099C58.9653 35.859 56.8308 38.0003 53.0905 38.0003C37.3512 38.0003 21.6143 38.0003 5.87501 38.0003C2.13218 38.0003 0.00268774 35.864 0.00268774 32.1099C0.00268774 23.3834 0.00268774 14.6569 0.00268774 5.93044C0.000194185 2.17386 2.1247 0.0400021 5.87501 0.0375209C13.7746 0.0325584 21.6767 0.0375209 29.5762 0.0375209ZM56.8258 12.6471H2.13966C2.13966 13.0317 2.13966 13.3617 2.13966 13.6942C2.13966 19.8228 2.13966 25.949 2.13966 32.0776C2.13966 34.7573 3.30914 35.9111 6.00966 35.9111C21.6567 35.9111 37.3013 35.9111 52.9483 35.9111C55.6488 35.9111 56.8233 34.7573 56.8258 32.0826C56.8283 25.9539 56.8258 19.8278 56.8258 13.6992C56.8258 13.3667 56.8258 13.0342 56.8258 12.6471ZM56.8258 10.4537C56.8258 8.88558 56.8283 7.40429 56.8258 5.92051C56.8183 3.30033 55.6414 2.13416 53.0057 2.13416C37.3237 2.13416 21.6418 2.13416 5.95979 2.13416C5.68051 2.13416 5.39874 2.12423 5.11946 2.14408C3.76796 2.24581 2.40398 3.17627 2.29925 4.44666C2.13468 6.42668 2.25686 8.42903 2.25686 10.4537H56.8258Z" fill="#CBCED2"/>
<path d="M11.7547 24.2636C10.3234 24.2636 8.89461 24.276 7.46331 24.2587C6.51576 24.2488 6.16667 23.9039 6.1542 22.9709C6.13674 21.6708 6.1542 20.3731 6.14921 19.0729C6.14422 18.2318 6.56563 17.8 7.39848 17.7976C10.3533 17.7876 13.3082 17.7901 16.2606 17.7976C17.0884 17.7976 17.5298 18.2144 17.5298 19.058C17.5298 20.3582 17.5423 21.6583 17.5248 22.956C17.5123 23.8939 17.1657 24.2512 16.2331 24.2612C14.7395 24.2785 13.2484 24.2661 11.7547 24.2661V24.2636ZM8.31362 22.1323H15.3479V19.986H8.31362V22.1323Z" fill="#CBCED2"/>
<path d="M47.0709 24.2637C45.6396 24.2637 44.2108 24.2761 42.7795 24.2613C41.7871 24.2513 41.4505 23.9064 41.4405 22.909C41.428 21.6411 41.4255 20.3707 41.4405 19.1028C41.453 18.1773 41.812 17.8051 42.7496 17.8001C45.672 17.7828 48.597 17.7828 51.5194 17.8001C52.4495 17.8051 52.8011 18.1847 52.8111 19.1201C52.8261 20.4203 52.8161 21.718 52.8136 23.0182C52.8136 23.8543 52.3947 24.2687 51.5469 24.2662C50.0532 24.2613 48.5621 24.2662 47.0684 24.2662L47.0709 24.2637ZM43.6323 19.9662V22.1274H50.6392V19.9662H43.6323Z" fill="#CBCED2"/>
<path d="M29.4562 24.2639C27.995 24.2639 26.5363 24.2564 25.0751 24.2664C24.2223 24.2738 23.8083 23.8669 23.8083 23.0282C23.8083 21.6983 23.8083 20.3683 23.8083 19.0409C23.8083 18.1973 24.2522 17.7953 25.0826 17.7953C28.0025 17.7953 30.925 17.7829 33.8449 17.8003C34.8024 17.8052 35.1366 18.1427 35.154 19.0955C35.179 20.3932 35.179 21.6933 35.154 22.991C35.1366 23.9512 34.8174 24.2515 33.8374 24.2614C32.3762 24.2763 30.9175 24.2664 29.4562 24.2664V24.2639ZM25.9877 19.9763V22.1077H32.9647V19.9763H25.9877Z" fill="#CBCED2"/>
<path d="M11.7945 30.7079C10.3632 30.7079 8.93436 30.7054 7.50306 30.7079C6.7525 30.7079 6.174 30.4424 6.17899 29.6211C6.18397 28.8495 6.74752 28.584 7.45319 28.584C10.3756 28.584 13.3006 28.584 16.223 28.584C16.9312 28.584 17.4947 28.8495 17.5022 29.6187C17.5097 30.4375 16.9312 30.7079 16.1806 30.7054C14.7194 30.7005 13.2582 30.7054 11.7945 30.7054V30.7079Z" fill="#CBCED2"/>
<path d="M47.1231 30.7079C45.6918 30.7079 44.263 30.7005 42.8317 30.7104C42.0911 30.7154 41.4852 30.4846 41.4652 29.6633C41.4478 28.8346 42.0487 28.584 42.7918 28.584C45.6843 28.584 48.5768 28.584 51.4694 28.584C52.2149 28.584 52.8109 28.8445 52.7884 29.6708C52.766 30.4896 52.1551 30.7154 51.4145 30.7104C49.9832 30.7005 48.5544 30.7079 47.1231 30.7079Z" fill="#CBCED2"/>
<path d="M29.4913 30.708C28.0949 30.708 26.6961 30.7006 25.2997 30.7105C24.5466 30.7154 23.9058 30.574 23.8335 29.6733C23.7786 28.9736 24.2748 28.589 25.2348 28.5865C28.06 28.5766 30.8877 28.5766 33.7129 28.5865C34.6854 28.589 35.1766 28.9587 35.1317 29.6584C35.0744 30.5591 34.4385 30.7179 33.683 30.7105C32.2866 30.7006 30.8877 30.708 29.4913 30.708Z" fill="#CBCED2"/>
</g>
<defs>
<clipPath id="clip0_12_1213">
<rect width="59" height="38" fill="white"/>
</clipPath>
</defs>
</svg>
