<svg width="29" height="29" viewBox="0 0 29 29" fill="none" xmlns="http://www.w3.org/2000/svg">
<path fill-rule="evenodd" clip-rule="evenodd" d="M28.9494 24.9092C28.9494 26.7946 27.5693 28.3224 25.866 28.3224H3.66566C1.9624 28.3224 0.582275 26.7946 0.582275 24.9092V5.11313C0.582275 3.60522 1.68674 2.38264 3.04898 2.38264H15.488L20.4824 0.379818C20.7988 0.252167 21.1491 0.433062 21.2644 0.781883L21.7904 2.38264H24.016C25.3782 2.38264 26.4827 3.60522 26.4827 5.11313V6.47838C27.845 6.47838 28.9494 7.70096 28.9494 9.20888V24.9092ZM3.04898 3.74789C2.36817 3.74789 1.81563 4.35952 1.81563 5.11313C1.81563 5.86675 2.36817 6.47838 3.04898 6.47838H5.17344H5.28999C5.294 6.47668 5.29723 6.47395 5.30047 6.47122L5.30047 6.47121C5.30371 6.46848 5.30695 6.46575 5.31096 6.46405L12.0833 3.74789H3.04898ZM20.3258 1.87545L20.9807 3.87144L21.8367 6.47838H8.84822L15.6557 3.74789H15.6619L19.0622 2.38264H19.0604L20.3252 1.87545H20.3258ZM25.2494 5.11313C25.2494 4.35952 24.6968 3.74789 24.016 3.74789H22.2381L23.1348 6.47838H25.2494V5.11313ZM3.04898 7.84363H26.4827C27.1635 7.84363 27.7161 8.45526 27.7161 9.20888V14.6699H25.2494C23.8871 14.6699 22.7827 15.8925 22.7827 17.4004C22.7827 18.9083 23.8871 20.1309 25.2494 20.1309H27.7161V24.9092C27.7161 26.0403 26.8879 26.9571 25.866 26.9571H3.66566C2.64444 26.9571 1.81563 26.0403 1.81563 24.9092V7.46477C2.17947 7.6996 2.59758 7.84363 3.04898 7.84363ZM25.2494 16.0351C24.5686 16.0351 24.016 16.6468 24.016 17.4004C24.016 18.154 24.5686 18.7656 25.2494 18.7656H27.7161V16.0351H25.2494ZM26.4827 16.7177H25.2494V18.083H26.4827V16.7177Z" fill="#7A899D"/>
</svg>
