<svg width="44" height="27" viewBox="0 0 44 27" fill="none" xmlns="http://www.w3.org/2000/svg">
<path d="M1.52695 27.0012C0.387625 26.6122 -0.0239698 25.7918 0.00107022 24.6185C0.0605403 21.9801 -0.00988478 19.3385 0.11062 16.7048C0.25147 13.5942 1.32193 10.7597 3.09351 8.21065C5.2939 5.04516 8.23767 2.84437 11.8919 1.61457C13.6823 1.01222 15.5321 0.745548 17.4148 0.745548C20.8578 0.745548 24.304 0.695353 27.7438 0.817706C31.5984 0.954176 34.9929 2.40673 37.9242 4.90869C40.3687 6.99496 42.0918 9.5832 43.1075 12.6389C43.7162 14.4695 43.9698 16.355 43.9823 18.275C43.9948 20.3895 43.9557 22.5055 43.9964 24.6185C44.0183 25.7918 43.6098 26.6122 42.4689 27.0012H1.52695Z" fill="#CBCED2"/>
</svg>
